# xmcd
#
# Track frame offsets:
# 150
# 28900
# 53912
# 79000
# 98362
# 122125
# 161300
# 180025
# 204400
# 243350
#
# Disc length: 3563 seconds
#
# Revision: 3
# Processed by: cddbd v1.5.2PL0 Copyright (c) Steve Scherf et al.
# Submitted via: Audio-CD-Archiv 4.00.530
#
DISCID=6d0de90a
DTITLE=Zwingenberger, Axel - Axel Zwingenberger and The Friends Of Boogie Woogie-Vol. 6 -Champion Jack Dupree
DYEAR=1990
DGENRE=blues
TTITLE0=Axel Zwingenberger - I Hate To Be Alone
TTITLE1=Axel Zwingenberger - No Dog No More
TTITLE2=Axel Zwingenberger - Do You Think Of Me?
TTITLE3=Axel Zwingenberger - Jack's Boogie Woogie
TTITLE4=Axel Zwingenberger - Driftin'  Woogie
TTITLE5=Axel Zwingenberger - I Left My Mother
TTITLE6=Axel Zwingenberger - Everyday I Have The Blues
TTITLE7=Axel Zwingenberger - Diggin' My Potatoes
TTITLE8=Axel Zwingenberger - Bring Me Flowers
TTITLE9=Axel Zwingenberger - The Drinker
EXTD=
EXTT0=
EXTT1=
EXTT2=
EXTT3=
EXTT4=
EXTT5=
EXTT6=
EXTT7=
EXTT8=
EXTT9=
PLAYORDER=
